<mxfile host="app.diagrams.net" modified="2023-04-29T06:36:43.719Z" agent="Mozilla/5.0 (Windows NT 10.0; Win64; x64) AppleWebKit/537.36 (KHTML, like Gecko) Chrome/112.0.0.0 Safari/537.36" etag="I6XhNgoRvAwlWl-MLQS-" version="21.2.3" type="device">
  <diagram name="Страница 1" id="WG_jQlarI-VB3oIreAcc">
    <mxGraphModel dx="593" dy="628" grid="1" gridSize="10" guides="1" tooltips="1" connect="1" arrows="1" fold="1" page="1" pageScale="1" pageWidth="827" pageHeight="1169" math="0" shadow="0">
      <root>
        <mxCell id="0" />
        <mxCell id="1" parent="0" />
        <mxCell id="CDTTN_Gtqm5pqsl_FyUt-1" value="" style="ellipse;html=1;shape=startState;fillColor=#000000;strokeColor=#ff0000;" vertex="1" parent="1">
          <mxGeometry x="160" y="40" width="30" height="30" as="geometry" />
        </mxCell>
        <mxCell id="CDTTN_Gtqm5pqsl_FyUt-2" value="" style="edgeStyle=orthogonalEdgeStyle;html=1;verticalAlign=bottom;endArrow=open;endSize=8;strokeColor=#ff0000;rounded=0;entryX=0.5;entryY=0;entryDx=0;entryDy=0;" edge="1" source="CDTTN_Gtqm5pqsl_FyUt-1" parent="1" target="CDTTN_Gtqm5pqsl_FyUt-3">
          <mxGeometry relative="1" as="geometry">
            <mxPoint x="175" y="130" as="targetPoint" />
          </mxGeometry>
        </mxCell>
        <mxCell id="CDTTN_Gtqm5pqsl_FyUt-3" value="Вход в веб-приложение СУС" style="rounded=1;whiteSpace=wrap;html=1;arcSize=40;fontColor=#000000;fillColor=#ffffc0;strokeColor=#ff0000;" vertex="1" parent="1">
          <mxGeometry x="115" y="140" width="120" height="40" as="geometry" />
        </mxCell>
        <mxCell id="CDTTN_Gtqm5pqsl_FyUt-4" value="" style="edgeStyle=orthogonalEdgeStyle;html=1;verticalAlign=bottom;endArrow=open;endSize=8;strokeColor=#ff0000;rounded=0;entryX=0.5;entryY=0;entryDx=0;entryDy=0;" edge="1" source="CDTTN_Gtqm5pqsl_FyUt-3" parent="1" target="CDTTN_Gtqm5pqsl_FyUt-7">
          <mxGeometry relative="1" as="geometry">
            <mxPoint x="175" y="240" as="targetPoint" />
          </mxGeometry>
        </mxCell>
        <mxCell id="CDTTN_Gtqm5pqsl_FyUt-6" value="выполнение бизнес задачи&lt;br&gt;по учету спецодежды&lt;br&gt;через СУС" style="text;html=1;align=center;verticalAlign=middle;resizable=0;points=[];autosize=1;strokeColor=none;fillColor=none;" vertex="1" parent="1">
          <mxGeometry x="180" y="60" width="180" height="60" as="geometry" />
        </mxCell>
        <mxCell id="CDTTN_Gtqm5pqsl_FyUt-7" value="Переход в необходимый раздел" style="rounded=1;whiteSpace=wrap;html=1;arcSize=40;fontColor=#000000;fillColor=#ffffc0;strokeColor=#ff0000;" vertex="1" parent="1">
          <mxGeometry x="115" y="240" width="120" height="40" as="geometry" />
        </mxCell>
        <mxCell id="CDTTN_Gtqm5pqsl_FyUt-8" value="" style="edgeStyle=orthogonalEdgeStyle;html=1;verticalAlign=bottom;endArrow=open;endSize=8;strokeColor=#ff0000;rounded=0;entryX=0.467;entryY=-0.026;entryDx=0;entryDy=0;entryPerimeter=0;" edge="1" source="CDTTN_Gtqm5pqsl_FyUt-7" parent="1" target="CDTTN_Gtqm5pqsl_FyUt-14">
          <mxGeometry relative="1" as="geometry">
            <mxPoint x="200" y="300" as="targetPoint" />
          </mxGeometry>
        </mxCell>
        <mxCell id="CDTTN_Gtqm5pqsl_FyUt-9" value="В задаче необходим ввод новых данных, изменение старых?" style="rhombus;whiteSpace=wrap;html=1;fontColor=#000000;fillColor=#ffffc0;strokeColor=#ff0000;" vertex="1" parent="1">
          <mxGeometry x="80" y="420" width="230" height="110" as="geometry" />
        </mxCell>
        <mxCell id="CDTTN_Gtqm5pqsl_FyUt-10" value="no" style="edgeStyle=orthogonalEdgeStyle;html=1;align=left;verticalAlign=bottom;endArrow=open;endSize=8;strokeColor=#ff0000;rounded=0;entryX=0.75;entryY=0;entryDx=0;entryDy=0;" edge="1" source="CDTTN_Gtqm5pqsl_FyUt-9" parent="1" target="CDTTN_Gtqm5pqsl_FyUt-16">
          <mxGeometry x="-1" relative="1" as="geometry">
            <mxPoint x="330" y="640" as="targetPoint" />
            <Array as="points">
              <mxPoint x="320" y="475" />
              <mxPoint x="320" y="605" />
              <mxPoint x="310" y="605" />
            </Array>
          </mxGeometry>
        </mxCell>
        <mxCell id="CDTTN_Gtqm5pqsl_FyUt-11" value="yes" style="edgeStyle=orthogonalEdgeStyle;html=1;align=left;verticalAlign=top;endArrow=open;endSize=8;strokeColor=#ff0000;rounded=0;entryX=0.433;entryY=0.05;entryDx=0;entryDy=0;entryPerimeter=0;" edge="1" source="CDTTN_Gtqm5pqsl_FyUt-9" parent="1" target="CDTTN_Gtqm5pqsl_FyUt-12">
          <mxGeometry x="-1" relative="1" as="geometry">
            <mxPoint x="200" y="590" as="targetPoint" />
          </mxGeometry>
        </mxCell>
        <mxCell id="CDTTN_Gtqm5pqsl_FyUt-12" value="Ввод необходимых данных" style="rounded=1;whiteSpace=wrap;html=1;arcSize=40;fontColor=#000000;fillColor=#ffffc0;strokeColor=#ff0000;" vertex="1" parent="1">
          <mxGeometry x="140" y="595" width="120" height="40" as="geometry" />
        </mxCell>
        <mxCell id="CDTTN_Gtqm5pqsl_FyUt-13" value="" style="edgeStyle=orthogonalEdgeStyle;html=1;verticalAlign=bottom;endArrow=open;endSize=8;strokeColor=#ff0000;rounded=0;entryX=0.25;entryY=0;entryDx=0;entryDy=0;" edge="1" source="CDTTN_Gtqm5pqsl_FyUt-12" parent="1" target="CDTTN_Gtqm5pqsl_FyUt-16">
          <mxGeometry relative="1" as="geometry">
            <mxPoint x="200" y="695" as="targetPoint" />
          </mxGeometry>
        </mxCell>
        <mxCell id="CDTTN_Gtqm5pqsl_FyUt-14" value="Взаимодействие с UI системы" style="rounded=1;whiteSpace=wrap;html=1;arcSize=40;fontColor=#000000;fillColor=#ffffc0;strokeColor=#ff0000;" vertex="1" parent="1">
          <mxGeometry x="135" y="310" width="120" height="40" as="geometry" />
        </mxCell>
        <mxCell id="CDTTN_Gtqm5pqsl_FyUt-15" value="" style="edgeStyle=orthogonalEdgeStyle;html=1;verticalAlign=bottom;endArrow=open;endSize=8;strokeColor=#ff0000;rounded=0;entryX=0.5;entryY=0;entryDx=0;entryDy=0;" edge="1" source="CDTTN_Gtqm5pqsl_FyUt-14" parent="1" target="CDTTN_Gtqm5pqsl_FyUt-9">
          <mxGeometry relative="1" as="geometry">
            <mxPoint x="195" y="410" as="targetPoint" />
          </mxGeometry>
        </mxCell>
        <mxCell id="CDTTN_Gtqm5pqsl_FyUt-16" value="Отправка запроса на backend для решение задачи" style="rounded=1;whiteSpace=wrap;html=1;arcSize=40;fontColor=#000000;fillColor=#ffffc0;strokeColor=#ff0000;" vertex="1" parent="1">
          <mxGeometry x="220" y="680" width="120" height="40" as="geometry" />
        </mxCell>
        <mxCell id="CDTTN_Gtqm5pqsl_FyUt-17" value="" style="edgeStyle=orthogonalEdgeStyle;html=1;verticalAlign=bottom;endArrow=open;endSize=8;strokeColor=#ff0000;rounded=0;entryX=0.461;entryY=-0.096;entryDx=0;entryDy=0;entryPerimeter=0;" edge="1" source="CDTTN_Gtqm5pqsl_FyUt-16" parent="1" target="CDTTN_Gtqm5pqsl_FyUt-18">
          <mxGeometry relative="1" as="geometry">
            <mxPoint x="280" y="780" as="targetPoint" />
          </mxGeometry>
        </mxCell>
        <mxCell id="CDTTN_Gtqm5pqsl_FyUt-18" value="Маршрутизация к необходимому компоненту blazor" style="rounded=1;whiteSpace=wrap;html=1;arcSize=40;fontColor=#000000;fillColor=#ffffc0;strokeColor=#ff0000;" vertex="1" parent="1">
          <mxGeometry x="230" y="790" width="120" height="40" as="geometry" />
        </mxCell>
        <mxCell id="CDTTN_Gtqm5pqsl_FyUt-19" value="" style="edgeStyle=orthogonalEdgeStyle;html=1;verticalAlign=bottom;endArrow=open;endSize=8;strokeColor=#ff0000;rounded=0;entryX=-0.039;entryY=0.467;entryDx=0;entryDy=0;entryPerimeter=0;" edge="1" source="CDTTN_Gtqm5pqsl_FyUt-18" parent="1" target="CDTTN_Gtqm5pqsl_FyUt-20">
          <mxGeometry relative="1" as="geometry">
            <mxPoint x="290" y="890" as="targetPoint" />
          </mxGeometry>
        </mxCell>
        <mxCell id="CDTTN_Gtqm5pqsl_FyUt-20" value="Вызов необходимого бизнес-сервиса" style="rounded=1;whiteSpace=wrap;html=1;arcSize=40;fontColor=#000000;fillColor=#ffffc0;strokeColor=#ff0000;" vertex="1" parent="1">
          <mxGeometry x="430" y="770" width="120" height="40" as="geometry" />
        </mxCell>
        <mxCell id="CDTTN_Gtqm5pqsl_FyUt-21" value="" style="edgeStyle=orthogonalEdgeStyle;html=1;verticalAlign=bottom;endArrow=open;endSize=8;strokeColor=#ff0000;rounded=0;entryX=0.5;entryY=1;entryDx=0;entryDy=0;" edge="1" source="CDTTN_Gtqm5pqsl_FyUt-20" parent="1" target="CDTTN_Gtqm5pqsl_FyUt-22">
          <mxGeometry relative="1" as="geometry">
            <mxPoint x="490" y="870" as="targetPoint" />
          </mxGeometry>
        </mxCell>
        <mxCell id="CDTTN_Gtqm5pqsl_FyUt-22" value="Взаимодействие с БД" style="rounded=1;whiteSpace=wrap;html=1;arcSize=40;fontColor=#000000;fillColor=#ffffc0;strokeColor=#ff0000;" vertex="1" parent="1">
          <mxGeometry x="430" y="650" width="120" height="40" as="geometry" />
        </mxCell>
        <mxCell id="CDTTN_Gtqm5pqsl_FyUt-23" value="" style="edgeStyle=orthogonalEdgeStyle;html=1;verticalAlign=bottom;endArrow=open;endSize=8;strokeColor=#ff0000;rounded=0;entryX=0.5;entryY=1;entryDx=0;entryDy=0;" edge="1" source="CDTTN_Gtqm5pqsl_FyUt-22" parent="1" target="CDTTN_Gtqm5pqsl_FyUt-24">
          <mxGeometry relative="1" as="geometry">
            <mxPoint x="490" y="590" as="targetPoint" />
          </mxGeometry>
        </mxCell>
        <mxCell id="CDTTN_Gtqm5pqsl_FyUt-24" value="Рендеринг UI компонента" style="rounded=1;whiteSpace=wrap;html=1;arcSize=40;fontColor=#000000;fillColor=#ffffc0;strokeColor=#ff0000;" vertex="1" parent="1">
          <mxGeometry x="430" y="540" width="120" height="40" as="geometry" />
        </mxCell>
        <mxCell id="CDTTN_Gtqm5pqsl_FyUt-25" value="" style="edgeStyle=orthogonalEdgeStyle;html=1;verticalAlign=bottom;endArrow=open;endSize=8;strokeColor=#ff0000;rounded=0;entryX=0.5;entryY=1;entryDx=0;entryDy=0;" edge="1" source="CDTTN_Gtqm5pqsl_FyUt-24" parent="1" target="CDTTN_Gtqm5pqsl_FyUt-26">
          <mxGeometry relative="1" as="geometry">
            <mxPoint x="480" y="480" as="targetPoint" />
          </mxGeometry>
        </mxCell>
        <mxCell id="CDTTN_Gtqm5pqsl_FyUt-26" value="Отправка ответа клиенту" style="rounded=1;whiteSpace=wrap;html=1;arcSize=40;fontColor=#000000;fillColor=#ffffc0;strokeColor=#ff0000;" vertex="1" parent="1">
          <mxGeometry x="430" y="440" width="120" height="40" as="geometry" />
        </mxCell>
        <mxCell id="CDTTN_Gtqm5pqsl_FyUt-27" value="" style="edgeStyle=orthogonalEdgeStyle;html=1;verticalAlign=bottom;endArrow=open;endSize=8;strokeColor=#ff0000;rounded=0;entryX=0.5;entryY=1;entryDx=0;entryDy=0;" edge="1" source="CDTTN_Gtqm5pqsl_FyUt-26" parent="1" target="CDTTN_Gtqm5pqsl_FyUt-30">
          <mxGeometry relative="1" as="geometry">
            <mxPoint x="470" y="390" as="targetPoint" />
          </mxGeometry>
        </mxCell>
        <mxCell id="CDTTN_Gtqm5pqsl_FyUt-30" value="" style="ellipse;html=1;shape=endState;fillColor=#000000;strokeColor=#ff0000;" vertex="1" parent="1">
          <mxGeometry x="475" y="350" width="30" height="30" as="geometry" />
        </mxCell>
        <mxCell id="CDTTN_Gtqm5pqsl_FyUt-31" value="выполненная &lt;br&gt;бизнес-задача" style="text;html=1;align=center;verticalAlign=middle;resizable=0;points=[];autosize=1;strokeColor=none;fillColor=none;" vertex="1" parent="1">
          <mxGeometry x="440" y="310" width="100" height="40" as="geometry" />
        </mxCell>
      </root>
    </mxGraphModel>
  </diagram>
</mxfile>
